<svg width="107" height="107" viewBox="0 0 107 107" fill="none" xmlns="http://www.w3.org/2000/svg">
<path d="M22.0999 57.46H74.5211L58.4765 76.7312C58.105 77.1781 57.8252 77.6939 57.6531 78.2489C57.4809 78.804 57.4197 79.3876 57.4731 79.9663C57.5809 81.1351 58.1485 82.2131 59.0511 82.9634C59.9538 83.7136 61.1175 84.0746 62.2862 83.9668C63.455 83.8591 64.5331 83.2914 65.2833 82.3888L87.3833 55.8688C87.532 55.6578 87.665 55.4362 87.7811 55.2058C87.7811 54.9848 88.0021 54.8522 88.0905 54.6312C88.2909 54.1244 88.3958 53.5849 88.3999 53.04C88.3958 52.495 88.2909 51.9556 88.0905 51.4488C88.0905 51.2278 87.8695 51.0952 87.7811 50.8742C87.665 50.6437 87.532 50.4221 87.3833 50.2112L65.2833 23.6912C64.8678 23.1922 64.3473 22.791 63.7591 22.516C63.1709 22.241 62.5293 22.0989 61.8799 22.1C60.8472 22.098 59.8463 22.4576 59.0511 23.1166C58.6036 23.4876 58.2336 23.9433 57.9624 24.4576C57.6913 24.9719 57.5242 25.5346 57.4708 26.1135C57.4174 26.6924 57.4788 27.2761 57.6514 27.8313C57.824 28.3865 58.1044 28.9022 58.4765 29.3488L74.5211 48.62H22.0999C20.9277 48.62 19.8034 49.0857 18.9745 49.9146C18.1456 50.7435 17.6799 51.8677 17.6799 53.04C17.6799 54.2122 18.1456 55.3365 18.9745 56.1654C19.8034 56.9943 20.9277 57.46 22.0999 57.46Z" fill="#231F20"/>
</svg>
